<svg width="40" height="40" viewBox="0 0 40 40" fill="none" xmlns="http://www.w3.org/2000/svg">
<g clip-path="url(#clip0_5_8)">
<path d="M25.0163 19.0469L21.1335 26.8125C20.6647 27.7578 19.3054 27.7266 18.8757 26.7656L14.4304 16.8984L12.0866 22.5H4.73505L18.9929 37.0703C19.5475 37.6406 20.446 37.6406 21.0007 37.0703L35.2663 22.5H26.7429L25.0163 19.0469ZM37.0085 5.77344L36.821 5.57812C32.7975 1.46875 26.2116 1.46875 22.1804 5.57812L20.0007 7.8125L17.821 5.58594C13.7975 1.46875 7.2038 1.46875 3.18036 5.58594L2.99286 5.77344C-0.811827 9.66406 -0.97589 15.8594 2.42255 20H10.4225L13.2272 13.2656C13.6491 12.2578 15.071 12.2344 15.5241 13.2344L20.071 23.3359L23.8991 15.6875C24.36 14.7656 25.6725 14.7656 26.1335 15.6875L28.2897 20H37.5788C40.9772 15.8594 40.8132 9.66406 37.0085 5.77344Z" fill="#424088"/>
</g>
<defs>
<clipPath id="clip0_5_8">
<rect width="40" height="40" fill="white"/>
</clipPath>
</defs>
</svg>
